<svg width="25" height="24" viewBox="0 0 25 24" fill="none" xmlns="http://www.w3.org/2000/svg">
<path d="M2.5 9.99979V13.9998C2.5 15.9998 3.5 16.9998 5.5 16.9998H6.93C7.3 16.9998 7.67 17.1098 7.99 17.2998L10.91 19.1298C13.43 20.7098 15.5 19.5598 15.5 16.5898V7.40979C15.5 4.42979 13.43 3.28979 10.91 4.86979L7.99 6.69979C7.67 6.88979 7.3 6.99979 6.93 6.99979H5.5C3.5 6.99979 2.5 7.99979 2.5 9.99979Z" stroke="#292D32" stroke-width="1.5"/>
<path d="M18.5 8C20.28 10.37 20.28 13.63 18.5 16" stroke="#292D32" stroke-width="1.5" stroke-linecap="round" stroke-linejoin="round"/>
<path d="M20.3301 5.5C23.2201 9.35 23.2201 14.65 20.3301 18.5" stroke="#292D32" stroke-width="1.5" stroke-linecap="round" stroke-linejoin="round"/>
</svg>
