<svg width="27" height="37" viewBox="0 0 27 37" fill="none" xmlns="http://www.w3.org/2000/svg">
<path d="M0 22.4047C0.228708 17.7634 2.35699 13.6656 6.85999 11.0149C13.1299 7.3241 19.4561 3.72913 25.7539 0.08573C26.0145 -0.0648904 26.0903 -0.0216014 26.1964 0.251863C27.7137 4.16464 26.2552 8.29973 23.528 10.7272C23.2908 10.9383 23.0228 11.1066 22.7478 11.2654C19.4699 13.1562 16.1929 15.0484 12.9169 16.942C12.4487 17.2126 12.2142 17.661 12.2872 18.1187C12.3671 18.6192 12.7715 19.0338 13.2698 19.1244C13.5914 19.1828 13.8644 19.0515 14.1304 18.898C17.3445 17.0431 20.5584 15.1881 23.7721 13.333C24.0778 13.1565 24.3884 12.9881 24.6865 12.7998C24.8585 12.691 24.9324 12.7291 24.9999 12.9112C25.4701 14.1819 25.7215 15.4893 25.6279 16.8463C25.4227 19.8206 24.1257 22.2205 21.6883 23.9288C20.5169 24.7499 19.2212 25.3939 17.9808 26.1163C17.4235 26.4408 16.8797 26.7938 16.3015 27.076C14.989 27.7169 14.3525 28.8438 14.0623 30.1886C13.4619 32.9701 15.665 35.6331 18.5122 35.6087C18.6694 35.6074 18.8264 35.5804 18.9833 35.5631C19.1231 35.5476 19.2326 35.6031 19.2688 35.7337C19.3031 35.8569 19.2175 35.9439 19.1074 35.9851C18.7439 36.1213 18.3828 36.2675 18.0118 36.38C10.7269 38.589 2.8337 34.3744 0.618938 27.095C0.205125 25.7344 0.0324929 24.3376 0 22.4047Z" fill="#00ACEE"/>
</svg>
