<svg width="28" height="33" viewBox="0 0 28 33" fill="none" xmlns="http://www.w3.org/2000/svg">
<path fill-rule="evenodd" clip-rule="evenodd" d="M23.125 0C24.3516 0 25.528 0.487276 26.3954 1.35463C27.2627 2.22199 27.75 3.39837 27.75 4.625V23.125C27.75 24.3516 27.2627 25.528 26.3954 26.3954C25.528 27.2627 24.3516 27.75 23.125 27.75H4.625C3.39837 27.75 2.22199 27.2627 1.35463 26.3954C0.487276 25.528 0 24.3516 0 23.125V4.625C0 3.39837 0.487276 2.22199 1.35463 1.35463C2.22199 0.487276 3.39837 0 4.625 0H23.125ZM23.125 3.08333H4.625C4.21612 3.08333 3.824 3.24576 3.53488 3.53488C3.24576 3.824 3.08333 4.21612 3.08333 4.625V23.125C3.08333 23.5339 3.24576 23.926 3.53488 24.2151C3.824 24.5042 4.21612 24.6667 4.625 24.6667H23.125C23.5339 24.6667 23.926 24.5042 24.2151 24.2151C24.5042 23.926 24.6667 23.5339 24.6667 23.125V4.625C24.6667 4.21612 24.5042 3.824 24.2151 3.53488C23.926 3.24576 23.5339 3.08333 23.125 3.08333ZM8.47917 16.9583C9.05403 16.9584 9.60827 17.1725 10.0338 17.559C10.4594 17.9455 10.7257 18.4766 10.7809 19.0488L10.7917 19.2862C10.7914 19.8801 10.5626 20.4511 10.1528 20.8809C9.74296 21.3107 9.18349 21.5664 8.5903 21.5949C7.99711 21.6235 7.41568 21.4227 6.96648 21.0342C6.51729 20.6458 6.23476 20.0994 6.17746 19.5082L6.16667 19.2708C6.16667 18.6575 6.4103 18.0693 6.84398 17.6356C7.27766 17.202 7.86585 16.9583 8.47917 16.9583ZM19.2708 16.9583C19.8457 16.9584 20.3999 17.1725 20.8255 17.559C21.251 17.9455 21.5174 18.4766 21.5725 19.0488L21.5833 19.2862C21.583 19.8801 21.3543 20.4511 20.9445 20.8809C20.5346 21.3107 19.9752 21.5664 19.382 21.5949C18.7888 21.6235 18.2073 21.4227 17.7581 21.0342C17.309 20.6458 17.0264 20.0994 16.9691 19.5082L16.9583 19.2708C16.9583 18.6575 17.202 18.0693 17.6356 17.6356C18.0693 17.202 18.6575 16.9583 19.2708 16.9583ZM13.875 11.5625C14.4499 11.5625 15.0041 11.7767 15.4296 12.1632C15.8552 12.5497 16.1215 13.0808 16.1767 13.653L16.1875 13.8904C16.1872 14.4843 15.9584 15.0553 15.5486 15.4851C15.1388 15.9149 14.5793 16.1706 13.9861 16.1991C13.3929 16.2276 12.8115 16.0269 12.3623 15.6384C11.9131 15.2499 11.6306 14.7035 11.5733 14.1124L11.5625 13.875C11.5625 13.2617 11.8061 12.6735 12.2398 12.2398C12.6735 11.8061 13.2617 11.5625 13.875 11.5625ZM8.47917 6.16667C9.05403 6.16669 9.60827 6.38083 10.0338 6.76733C10.4594 7.15382 10.7257 7.68496 10.7809 8.25717L10.7917 8.49458C10.7914 9.08846 10.5626 9.65946 10.1528 10.0893C9.74296 10.5191 9.18349 10.7747 8.5903 10.8033C7.99711 10.8318 7.41568 10.631 6.96648 10.2426C6.51729 9.85409 6.23476 9.30769 6.17746 8.71658L6.16667 8.47917C6.16667 7.86585 6.4103 7.27766 6.84398 6.84398C7.27766 6.4103 7.86585 6.16667 8.47917 6.16667ZM19.2708 6.16667C19.8457 6.16669 20.3999 6.38083 20.8255 6.76733C21.251 7.15382 21.5174 7.68496 21.5725 8.25717L21.5833 8.49458C21.583 9.08846 21.3543 9.65946 20.9445 10.0893C20.5346 10.5191 19.9752 10.7747 19.382 10.8033C18.7888 10.8318 18.2073 10.631 17.7581 10.2426C17.309 9.85409 17.0264 9.30769 16.9691 8.71658L16.9583 8.47917C16.9583 7.86585 17.202 7.27766 17.6356 6.84398C18.0693 6.4103 18.6575 6.16667 19.2708 6.16667Z" fill="black"/>
</svg>
