<svg width="35" height="35" viewBox="0 0 35 35" fill="none" xmlns="http://www.w3.org/2000/svg">
<path d="M2 8.16675H32.8333V14.3334L31.7553 14.9802C30.0465 16.0055 27.9118 16.0055 26.203 14.9802L25.125 14.3334L24.047 14.9802C22.3382 16.0055 20.2035 16.0055 18.4947 14.9802L17.4167 14.3334L16.3387 14.9802C14.6299 16.0055 12.4951 16.0055 10.7863 14.9802L9.70833 14.3334L8.63032 14.9802C6.92154 16.0055 4.7868 16.0055 3.07803 14.9802L2 14.3334V8.16675Z" fill="#2F88FF" stroke="black" stroke-width="3.08333" stroke-linecap="round" stroke-linejoin="round"/>
<path d="M5.08301 16.2519V32.8333H29.7497V15.875" stroke="black" stroke-width="3.08333" stroke-linecap="round" stroke-linejoin="round"/>
<path d="M5.08301 8.02961V2H29.7497V8.16667" stroke="black" stroke-width="3.08333" stroke-linecap="round" stroke-linejoin="round"/>
<path d="M21.2708 23.5833H13.5625V32.8333H21.2708V23.5833Z" fill="#2F88FF" stroke="black" stroke-width="3.08333" stroke-linecap="round" stroke-linejoin="round"/>
</svg>
