<svg width="35" height="21" viewBox="0 0 35 21" fill="none" xmlns="http://www.w3.org/2000/svg">
<path d="M9.25 0C5.43438 0 2.3125 3.12188 2.3125 6.9375C2.3125 9.2315 3.44216 11.2734 5.16728 12.5384C2.11825 14.0507 0 17.1865 0 20.8125H2.3125C2.3125 16.9691 5.40663 13.875 9.25 13.875C13.0934 13.875 16.1875 16.9691 16.1875 20.8125H18.5C18.5 16.9691 21.5941 13.875 25.4375 13.875C29.2809 13.875 32.375 16.9691 32.375 20.8125H34.6875C34.6875 17.1853 32.5693 14.0507 29.5202 12.5384C30.4034 11.8955 31.1223 11.0531 31.6184 10.0799C32.1145 9.10658 32.3737 8.02991 32.375 6.9375C32.375 3.12188 29.2531 0 25.4375 0C21.6219 0 18.5 3.12188 18.5 6.9375C18.5 9.2315 19.6297 11.2734 21.3548 12.5384C19.6653 13.3688 18.2669 14.6914 17.3438 16.332C16.4206 14.6914 15.0222 13.3688 13.3327 12.5384C14.2159 11.8955 14.9348 11.0531 15.4309 10.0799C15.927 9.10658 16.1862 8.02991 16.1875 6.9375C16.1875 3.12188 13.0656 0 9.25 0ZM9.25 2.3125C11.8203 2.3125 13.875 4.36716 13.875 6.9375C13.875 9.50784 11.8203 11.5625 9.25 11.5625C6.67966 11.5625 4.625 9.50784 4.625 6.9375C4.625 4.36716 6.67966 2.3125 9.25 2.3125ZM25.4375 2.3125C28.0078 2.3125 30.0625 4.36716 30.0625 6.9375C30.0625 9.50784 28.0078 11.5625 25.4375 11.5625C22.8672 11.5625 20.8125 9.50784 20.8125 6.9375C20.8125 4.36716 22.8672 2.3125 25.4375 2.3125Z" fill="black"/>
</svg>
