<svg width="35" height="35" viewBox="0 0 35 35" fill="none" xmlns="http://www.w3.org/2000/svg">
<path d="M3.00684 6.21669L7.70815 1.51538L8.85284 2.66007L4.15152 7.36138L3.00684 6.21669ZM11.2214 7.39896L15.9233 2.6988L17.068 3.84349L12.3661 8.54365L11.2214 7.39896ZM27.3447 30.5569L32.0472 25.8568L33.1919 27.002L28.4894 31.7022L27.3447 30.5569ZM26.1706 22.2915L30.873 17.5913L32.0177 18.7366L27.3147 23.4367L26.1706 22.2915Z" fill="#ACB8BF"/>
<path d="M31.4435 33.9367L28.7263 9.59761L25.0841 5.95542L0.745059 3.23824C-0.411191 3.12261 -0.17994 6.01324 1.14975 6.64917L19.4763 15.2054L28.0326 33.532C28.6685 34.8617 31.5591 35.0929 31.4435 33.9367Z" fill="#42ADE2"/>
<path d="M34.2758 3.52732C35.5477 1.04139 33.6399 -0.866426 31.154 0.405449C27.9743 2.0242 23.2915 5.66639 18.5508 10.3492C11.1508 17.7492 6.4102 25.0914 7.97114 26.7101C9.53208 28.2711 16.9321 23.5304 24.3321 16.1304C29.0149 11.4476 32.6571 6.70701 34.2758 3.52732Z" fill="#DAE3EA"/>
<path d="M11.7874 33.6478L10.8624 25.0915L9.59055 23.8197L1.0343 22.8947C0.629612 22.8368 0.687424 23.8775 1.14992 24.1087L7.56711 27.115L10.5734 33.5322C10.8046 33.9947 11.8452 34.0525 11.7874 33.6478Z" fill="#42ADE2"/>
<path d="M10.516 25.554C7.91444 28.1555 5.54413 29.9477 5.19725 29.543C4.85038 29.1962 6.64257 26.768 9.18632 24.1665C11.7879 21.5649 14.1582 19.7727 14.5629 20.1774C14.8519 20.5243 13.0598 22.9524 10.516 25.554Z" fill="#ACB8BF"/>
</svg>
