<svg width="19" height="21" viewBox="0 0 19 21" fill="none" xmlns="http://www.w3.org/2000/svg">
<path d="M8.17935 1.04327C8.59564 0.69242 9.12254 0.5 9.66695 0.5C10.2114 0.5 10.7383 0.69242 11.1545 1.04327L18.0796 6.88285C18.5997 7.32195 18.9003 7.96726 18.9003 8.64745V18.7046C18.9003 19.1808 18.7112 19.6374 18.3745 19.9741C18.0378 20.3108 17.5811 20.5 17.1049 20.5H13.5142C13.038 20.5 12.5814 20.3108 12.2447 19.9741C11.908 19.6374 11.7188 19.1808 11.7188 18.7046L11.7188 13.062C11.7188 12.994 11.6918 12.9288 11.6437 12.8807C11.5956 12.8326 11.5303 12.8055 11.4623 12.8055H7.87158C7.80355 12.8055 7.73831 12.8326 7.69022 12.8807C7.64212 12.9288 7.61509 12.994 7.61509 13.062V18.7046C7.61509 19.1808 7.42594 19.6374 7.08924 19.9741C6.75254 20.3108 6.29588 20.5 5.81972 20.5H2.22897C1.9932 20.5 1.75973 20.4536 1.54191 20.3633C1.32408 20.2731 1.12616 20.1409 0.959447 19.9741C0.792731 19.8074 0.660485 19.6095 0.570259 19.3917C0.480033 19.1739 0.433594 18.9404 0.433594 18.7046L0.433594 8.64745C0.433594 7.96726 0.734191 7.32195 1.25434 6.88285L8.17935 1.04327ZM10.1625 2.22C10.0238 2.10324 9.84827 2.0392 9.66695 2.0392C9.48563 2.0392 9.31014 2.10324 9.17143 2.22L2.24641 8.05856C2.16071 8.1307 2.0918 8.22069 2.04449 8.32222C1.99717 8.42376 1.9726 8.5344 1.97249 8.64642L1.97249 18.7036C1.97249 18.8452 2.08739 18.9601 2.22897 18.9601H5.81972C5.88774 18.9601 5.95298 18.9331 6.00108 18.885C6.04918 18.8369 6.0762 18.7716 6.0762 18.7036V13.061C6.0762 12.0689 6.88053 11.2656 7.87158 11.2656H11.4623C12.4534 11.2656 13.2577 12.0689 13.2577 13.061L13.2577 18.7036C13.2577 18.8452 13.3726 18.9601 13.5142 18.9601H17.1049C17.173 18.9601 17.2382 18.9331 17.2863 18.885C17.3344 18.8369 17.3614 18.7716 17.3614 18.7036V8.64745C17.3613 8.53543 17.3367 8.42479 17.2894 8.32325C17.2421 8.22171 17.1732 8.13173 17.0875 8.05959L10.1625 2.22Z" fill="#A2A2A2"/>
</svg>
