<svg width="25" height="25" viewBox="0 0 25 25" fill="none" xmlns="http://www.w3.org/2000/svg">
<path fill-rule="evenodd" clip-rule="evenodd" d="M20.6673 22.5C20.6673 22.5 22.334 22.5 22.334 20.8333C22.334 19.1667 20.6673 14.1667 12.334 14.1667C4.00065 14.1667 2.33398 19.1667 2.33398 20.8333C2.33398 22.5 4.00065 22.5 4.00065 22.5H20.6673ZM4.03732 20.8333H20.6306C20.6385 20.8324 20.6462 20.8313 20.654 20.83L20.6673 20.8267C20.6656 20.4167 20.4107 19.1833 19.2807 18.0533C18.194 16.9667 16.149 15.8333 12.334 15.8333C8.51732 15.8333 6.47398 16.9667 5.38732 18.0533C4.25732 19.1833 4.00398 20.4167 4.00065 20.8267C4.01285 20.829 4.02507 20.8312 4.03732 20.8333ZM12.334 10.8333C13.218 10.8333 14.0659 10.4821 14.691 9.85702C15.3161 9.2319 15.6673 8.38406 15.6673 7.5C15.6673 6.61594 15.3161 5.7681 14.691 5.14298C14.0659 4.51786 13.218 4.16667 12.334 4.16667C11.4499 4.16667 10.6021 4.51786 9.97696 5.14298C9.35184 5.7681 9.00065 6.61594 9.00065 7.5C9.00065 8.38406 9.35184 9.2319 9.97696 9.85702C10.6021 10.4821 11.4499 10.8333 12.334 10.8333ZM17.334 7.5C17.334 8.82608 16.8072 10.0979 15.8695 11.0355C14.9318 11.9732 13.6601 12.5 12.334 12.5C11.0079 12.5 9.73613 11.9732 8.79845 11.0355C7.86077 10.0979 7.33398 8.82608 7.33398 7.5C7.33398 6.17392 7.86077 4.90215 8.79845 3.96447C9.73613 3.02678 11.0079 2.5 12.334 2.5C13.6601 2.5 14.9318 3.02678 15.8695 3.96447C16.8072 4.90215 17.334 6.17392 17.334 7.5Z" fill="#A2A2A2"/>
</svg>
